<svg width="38" height="38" viewBox="0 0 38 38" fill="none" xmlns="http://www.w3.org/2000/svg">
<path d="M37.4275 23.5965C34.8898 33.7751 24.58 39.969 14.4002 37.4314C4.22515 34.8937 -1.96941 24.5839 0.568854 14.4058C3.10534 4.22605 13.4146 -1.96911 23.5914 0.56857C33.7706 3.10624 39.9646 13.4173 37.4269 23.5965H37.4275Z" fill="#F7931A"/>
<path d="M27.3754 16.2933C27.753 13.7652 25.828 12.4061 23.196 11.4994L24.0498 8.07469L21.9645 7.55516L21.1333 10.8896C20.5859 10.7531 20.023 10.6242 19.4637 10.4966L20.3009 7.14013L18.2174 6.62061L17.363 10.0442C16.9094 9.94084 16.4641 9.83871 16.0318 9.73125L16.0342 9.72056L13.1593 9.00272L12.6047 11.2293C12.6047 11.2293 14.1514 11.5837 14.1188 11.6057C14.9631 11.8165 15.1163 12.3752 15.0901 12.8181L14.1176 16.7196C14.1758 16.7345 14.2512 16.7559 14.3343 16.7891L14.1146 16.7345L12.7508 22.1999C12.6475 22.4564 12.3856 22.8412 11.7954 22.6951C11.8162 22.7254 10.2802 22.3169 10.2802 22.3169L9.24529 24.7038L11.9587 25.38C12.4634 25.5065 12.958 25.6389 13.4443 25.7636L12.5816 29.2281L14.6638 29.7476L15.5188 26.3205C16.087 26.4749 16.6392 26.6174 17.1795 26.7516L16.3281 30.1627L18.4127 30.6822L19.2755 27.2248C22.8302 27.8975 25.5039 27.6262 26.6278 24.4116C27.5345 21.8229 26.5833 20.3296 24.713 19.3553C26.075 19.04 27.101 18.144 27.3748 16.2933H27.3754ZM22.6117 22.9724C21.9669 25.5611 17.6088 24.1623 16.1951 23.8108L17.3398 19.2217C18.753 19.5744 23.2838 20.2726 22.6123 22.9724H22.6117ZM23.2559 16.2559C22.6681 18.6107 19.0403 17.4143 17.8629 17.121L18.9008 12.9589C20.0782 13.2522 23.8687 13.7996 23.2559 16.2559Z" fill="white"/>
</svg>
