<svg width="162" height="40" viewBox="0 0 162 40" fill="none" xmlns="http://www.w3.org/2000/svg">
<path fill-rule="evenodd" clip-rule="evenodd" d="M0.428833 0.298096H161.996V39.9999H0.428833V0.298096Z" fill="#EAEAEA"/>
<path fill-rule="evenodd" clip-rule="evenodd" d="M63.0409 12.7606L69.2346 9.55151L67.2941 5.8208L61.1013 8.95477L63.0409 12.7606ZM71.6975 28.2828V13.208H55.1304V17.462H58.115V28.2828H55.1304V32.5368H74.6821V28.2828H71.6975ZM90.3537 12.2381V16.2685C90.0793 16.2682 89.8075 16.322 89.554 16.4269C89.3004 16.5317 89.07 16.6856 88.8761 16.8797C88.6821 17.0737 88.5283 17.3042 88.4235 17.5578C88.3187 17.8114 88.2651 18.0832 88.2655 18.3575V21.045H90.3537V24.3275H88.2655V26.2689C88.2655 27.3872 88.9348 28.4331 89.9806 28.9555C90.1309 29.0298 90.2794 29.1041 90.3537 29.1041V33.4324C87.6688 33.5066 84.9053 32.985 82.1444 31.9392C79.6071 30.9694 77.7418 29.1783 76.6977 26.6411C74.607 21.716 76.8463 16.044 81.7713 14.0284C84.6091 12.7606 87.5185 12.2381 90.3537 12.2381ZM30.0561 16.8653L37.2947 6.86574H52.3686V11.1181H49.3841V28.2828H52.3686V32.5368H32.7418V28.2828H35.8024V17.1632L24.6085 32.5368L13.4138 17.1632V28.2828H16.4735V32.5368H5.65271V28.2828H8.63814V11.1181H5.65271V6.86574H22.7414L30.0561 16.8653ZM109.086 28.2828H106.1V32.5368H126.324V28.2828H123.264V6.86574H106.1V11.1181H109.086V28.2828ZM90.3537 24.3275V21.045H92.5178V18.3575C92.5178 17.1632 91.548 16.2685 90.3537 16.2685V12.2381C93.4894 12.3124 96.5473 13.0586 99.5345 14.5517C103.265 16.4179 105.279 20.2238 104.757 24.3275H90.3537Z" fill="white"/>
<path fill-rule="evenodd" clip-rule="evenodd" d="M90.3536 33.4325V29.1042C90.5039 29.1785 90.5782 29.1785 90.7284 29.2527C93.4133 30.074 96.2511 28.5075 97.0706 25.82H104.609C103.713 28.4323 101.922 30.2243 99.5353 31.3426C96.473 32.7606 93.4133 33.4325 90.3536 33.4325ZM141.995 12.2383V16.2687C140.801 16.2687 139.831 17.1642 139.831 18.3577V21.0452H141.995V24.3277H139.831V26.269C139.831 27.3874 140.502 28.4332 141.546 28.9539C141.697 29.0299 141.845 29.1042 141.995 29.1042V33.4325C139.235 33.5068 136.473 32.9835 133.712 31.9394C131.175 30.9696 129.384 29.1785 128.264 26.6412C126.174 21.7162 128.488 16.0441 133.413 14.0285C136.248 12.7608 139.084 12.2383 141.995 12.2383ZM141.995 24.3277V21.0452H144.085V18.3577C144.086 18.0831 144.032 17.8111 143.927 17.5574C143.823 17.3036 143.669 17.073 143.474 16.8789C143.28 16.6848 143.05 16.531 142.796 16.4263C142.542 16.3215 142.27 16.268 141.995 16.2687V12.2383C145.055 12.3126 148.115 13.0587 151.175 14.5518C154.905 16.4181 156.921 20.2239 156.398 24.3277H141.995ZM141.995 33.4325V29.1042C142.07 29.1785 142.144 29.1785 142.294 29.2527C144.981 30.074 147.89 28.5075 148.712 25.82H156.251C155.279 28.4323 153.564 30.2243 151.101 31.3426C148.041 32.7606 145.055 33.4325 141.995 33.4325Z" fill="white"/>
</svg>
