<svg width="112" height="40" viewBox="0 0 112 40" fill="none" xmlns="http://www.w3.org/2000/svg">
<path fill-rule="evenodd" clip-rule="evenodd" d="M0.270752 39.9999V0.298096H111.902V39.9999H0.270752Z" fill="#EAEAEA"/>
<path fill-rule="evenodd" clip-rule="evenodd" d="M56.2428 38.3783C71.1409 38.3783 86.2124 36.669 100.075 30.9289C104.516 29.0945 110.43 25.601 110.43 20.1487C110.43 14.6836 104.504 11.2028 100.075 9.36842C86.2124 3.62894 71.1403 1.91968 56.2428 1.91968C41.3828 1.91968 26.1112 3.51652 12.3233 9.36842C8.23088 11.1025 1.74316 14.9955 1.74316 20.1487C1.74316 25.2892 8.21881 29.1943 12.3233 30.9289C26.1105 36.7808 41.3948 38.3783 56.2428 38.3783Z" fill="white"/>
<path fill-rule="evenodd" clip-rule="evenodd" d="M71.964 22.0588C71.6763 21.8714 71.3651 21.7342 71.0151 21.7342H65.8371V22.5828H72.6754C73.0114 22.5828 73.324 22.4449 73.611 22.2709V27.4483H56.305C56.6041 27.1986 56.8785 26.8868 56.8785 26.4872V13.3244C56.8785 12.9135 56.6041 12.6009 56.305 12.3513H73.6104V17.03C73.324 16.8433 73.0114 16.7055 72.6748 16.7055H65.8365V17.6913H71.0144C71.3644 17.6913 71.6757 17.5661 71.9634 17.3673V22.0588H71.964ZM88.4946 24.4292H84.6651L83.9035 26.6873C83.8781 26.7681 83.8654 26.8523 83.866 26.9369C83.866 27.1243 83.9283 27.2869 84.0159 27.4489H75.1939C75.3934 27.2494 75.5312 27.0379 75.6309 26.775L80.3351 14.0854C80.4481 13.7735 80.5472 13.4368 80.5472 13.1123C80.5472 12.8379 80.4481 12.5882 80.3351 12.3513H94.5955C94.4837 12.6009 94.3719 12.8506 94.3719 13.125C94.3719 13.4616 94.471 13.7862 94.5955 14.0854L99.7861 26.775C99.8865 27.05 100.037 27.2488 100.261 27.4489H89.2441C89.3184 27.2621 89.3692 27.0748 89.3692 26.8753C89.3692 26.7629 89.3559 26.6632 89.3184 26.5634L88.4946 24.4292ZM40.1594 21.9082V26.4745C40.1594 26.8861 40.4217 27.1859 40.7209 27.4476H30.2779C30.565 27.1859 30.8394 26.8861 30.8394 26.4745V13.3371C30.8394 12.9135 30.565 12.6257 30.2779 12.3513H40.7215C40.4217 12.6136 40.16 12.9128 40.16 13.3371V17.8786L43.1917 13.3371C43.2794 13.1999 43.3537 13.0379 43.3537 12.8626C43.3537 12.688 43.2667 12.5133 43.1917 12.3513H53.4981C53.055 12.5824 52.6773 12.9214 52.3999 13.3371L48.7813 18.59L53.7719 26.4752C54.0342 26.8995 54.3956 27.2113 54.8447 27.4483H42.8424C42.9294 27.3238 43.0418 27.1866 43.0418 27.0373C43.0418 26.8378 42.9421 26.6378 42.8424 26.4752L40.1594 21.9082ZM15.8669 12.3513H26.5595C26.2604 12.6136 25.998 12.9001 25.998 13.3244V26.4752C25.998 26.8868 26.2604 27.1866 26.5595 27.4483H15.8669C16.154 27.1866 16.4157 26.8868 16.4157 26.4752V13.3244C16.4157 12.9001 16.154 12.6136 15.8669 12.3513Z" fill="#EAEAEA"/>
<path fill-rule="evenodd" clip-rule="evenodd" d="M85.6501 21.3848H87.3594L86.474 18.9768L85.6501 21.3848Z" fill="white"/>
</svg>
