<svg width="40" height="40" viewBox="0 0 40 40" fill="none" xmlns="http://www.w3.org/2000/svg">
<path fill-rule="evenodd" clip-rule="evenodd" d="M0 0H40V40H0V0Z" fill="white"/>
<path fill-rule="evenodd" clip-rule="evenodd" d="M1.76058 36.8753H1.64624C1.64624 36.8182 1.6176 36.7323 1.6176 36.7034C1.6176 36.675 1.6176 36.6179 1.53169 36.6179H1.35987V36.8753H1.27396V36.2743H1.53169C1.64624 36.2743 1.73194 36.3031 1.73194 36.4173C1.73194 36.5032 1.70331 36.532 1.67488 36.5603C1.70351 36.5891 1.73194 36.6177 1.73194 36.675V36.7894C1.73194 36.8182 1.73194 36.8182 1.76058 36.8182V36.8753ZM1.64624 36.4461C1.64624 36.3602 1.58897 36.3602 1.56033 36.3602H1.35987V36.532H1.53169C1.58897 36.532 1.64624 36.5032 1.64624 36.4461ZM2.13287 36.5605C2.13287 36.2172 1.8467 35.9306 1.47442 35.9306C1.13098 35.9306 0.844604 36.2172 0.844604 36.5605C0.844604 36.9325 1.13098 37.2191 1.47442 37.2191C1.84649 37.2189 2.13287 36.9325 2.13287 36.5605ZM2.04695 36.5605C2.04695 36.8755 1.78943 37.1044 1.47442 37.1044C1.15941 37.1044 0.930516 36.8753 0.930516 36.5605C0.930516 36.2743 1.15961 36.0166 1.47442 36.0166C1.78922 36.0166 2.04695 36.2743 2.04695 36.5605ZM37.3152 24.9954C37.3152 25.8543 36.7713 26.2546 35.7978 26.2546H33.9374V25.3957H35.7978C35.9696 25.3957 36.1128 25.3672 36.1703 25.3102C36.2274 25.2527 36.2846 25.1668 36.2846 25.0524C36.2846 24.9377 36.2276 24.8233 36.1703 24.7663C36.1128 24.7088 35.9985 24.6804 35.8267 24.6804C34.9395 24.6515 33.8229 24.7088 33.8229 23.4494C33.8229 22.8766 34.195 22.2468 35.1968 22.2468H37.1147V23.1057H35.3398C35.1684 23.1057 35.0536 23.1057 34.9677 23.1628C34.8818 23.2487 34.8248 23.3346 34.8248 23.4778C34.8248 23.621 34.9107 23.7069 35.025 23.7644C35.1398 23.7928 35.2543 23.8215 35.3975 23.8215H35.9126C36.4565 23.8215 36.8001 23.9358 37.0292 24.1365C37.2006 24.3367 37.3152 24.5947 37.3152 24.9954ZM33.2788 24.1365C33.0497 23.9358 32.706 23.8215 32.1621 23.8215H31.6471C31.5041 23.8215 31.3893 23.7926 31.275 23.7644C31.1602 23.7069 31.0747 23.621 31.0747 23.4778C31.0747 23.3346 31.1032 23.2487 31.2177 23.1628C31.3036 23.1057 31.418 23.1057 31.5898 23.1057H33.3647V22.2468H31.4468C30.4161 22.2468 30.0724 22.8766 30.0724 23.4494C30.0724 24.7086 31.1891 24.6515 32.0766 24.6804C32.248 24.6804 32.3628 24.7088 32.4199 24.7663C32.4769 24.8233 32.5346 24.9377 32.5346 25.0524C32.5346 25.1668 32.4771 25.2527 32.4199 25.3102C32.3339 25.3672 32.2196 25.3957 32.0478 25.3957H30.187V26.2546H32.0478C33.0208 26.2546 33.5649 25.8541 33.5649 24.9954C33.5649 24.5947 33.4506 24.3367 33.2788 24.1365ZM29.6144 25.4247H27.3533V24.6231H29.5574V23.8219H27.3533V23.0773H29.6144V22.2472H26.4085V26.2548H29.6144V25.4247ZM25.3778 22.4477C25.0628 22.2759 24.6907 22.247 24.2041 22.247H22.0001V26.2546H22.9731V24.7947H24.0038C24.3471 24.7947 24.5477 24.8235 24.6909 24.9665C24.8627 25.1668 24.8627 25.5104 24.8627 25.7682V26.2546H25.8071V25.4816C25.8071 25.1095 25.7787 24.9377 25.6642 24.7374C25.5783 24.6227 25.4068 24.4797 25.1777 24.3938C25.4351 24.3083 25.8648 23.9646 25.8648 23.3346C25.8646 22.8768 25.6928 22.6191 25.3778 22.4477ZM19.9388 22.247H16.8756L15.6447 23.5639L14.471 22.247H10.6064V26.2546H14.4139L15.6449 24.9377L16.8186 26.2546H18.6794V24.9095H19.8817C20.7118 24.9095 21.5423 24.6804 21.5423 23.5639C21.5421 22.4761 20.6832 22.247 19.9388 22.247ZM24.6048 23.9076C24.4618 23.9646 24.3186 23.9646 24.1468 23.9646L22.9731 23.9935V23.0771H24.1468C24.3186 23.0771 24.4905 23.0771 24.6048 23.163C24.7196 23.2205 24.805 23.3348 24.805 23.5067C24.805 23.6785 24.7196 23.8217 24.6048 23.9076ZM19.9388 24.1078H18.6792V23.0771H19.9388C20.2824 23.0771 20.5113 23.2205 20.5113 23.5639C20.5113 23.9076 20.2822 24.1078 19.9388 24.1078ZM16.2458 24.2508L17.7344 22.6766V25.9114L16.2458 24.2508ZM13.927 25.4247H11.551V24.6231H13.6693V23.8219H11.551V23.0773H13.9557L15.0149 24.251L13.927 25.4247ZM34.6527 19.3557H33.2788L31.4752 16.3498V19.3557H29.5289L29.1565 18.4682H27.1527L26.7806 19.3557H25.664C25.206 19.3557 24.6048 19.2412 24.2616 18.8975C23.9466 18.5541 23.7747 18.0961 23.7747 17.3804C23.7747 16.7792 23.8606 16.2353 24.2898 15.8059C24.576 15.4909 25.0914 15.3479 25.7497 15.3479H26.6656V16.2069H25.7497C25.4064 16.2069 25.2058 16.2641 25.0055 16.436C24.8337 16.6078 24.7478 16.9226 24.7478 17.3519C24.7478 17.7813 24.8337 18.0963 25.0055 18.2967C25.1485 18.4397 25.4064 18.497 25.6638 18.497H26.0933L27.4673 15.3482H28.8987L30.5018 19.1268V15.3479H31.9905L33.6795 18.1247V15.3479H34.6525V19.3557H34.6527ZM23.2881 15.3479H22.3151V19.3557H23.2881V15.3479ZM21.2555 15.5198C20.9405 15.3479 20.5972 15.3479 20.1106 15.3479H17.9062V19.3557H18.8508V17.8956H19.8813C20.225 17.8956 20.4541 17.9243 20.597 18.0674C20.7689 18.2679 20.74 18.6116 20.74 18.8404V19.3557H21.7131V18.5541C21.7131 18.2106 21.6846 18.0388 21.5417 17.8383C21.4557 17.7238 21.2839 17.5806 21.0837 17.4949C21.341 17.3804 21.7707 17.0656 21.7707 16.4357C21.771 15.9778 21.5703 15.72 21.2555 15.5198ZM17.2191 18.5256H14.9862V17.724H17.1904V16.8939H14.9862V16.1782H17.2191V15.3482H14.013V19.3559H17.2191V18.5256ZM13.2972 15.3479H11.7228L10.5491 18.0674L9.28948 15.3479H7.74369V19.1266L6.11199 15.3479H4.68075L2.96314 19.3557H3.99366L4.36574 18.4682H6.36952L6.74159 19.3557H8.6883V16.2069L10.0909 19.3557H10.921L12.3238 16.2069V19.3557H13.297V15.3479H13.2972ZM28.8132 17.6095L28.1546 16.035L27.4963 17.6095H28.8132ZM20.5113 16.9799C20.3684 17.0658 20.2252 17.0658 20.0247 17.0658H18.8508V16.1784H20.0245C20.1963 16.1784 20.3964 16.1784 20.5111 16.2357C20.6255 16.3216 20.6829 16.4362 20.6829 16.6078C20.6829 16.7794 20.6257 16.9224 20.5113 16.9799ZM4.70918 17.6095L5.36763 16.035L6.02608 17.6095H4.70918ZM37.0863 2.78076H2.93429V17.2087L4.108 14.5465H6.59841L6.94205 15.205V14.5465H9.86201L10.5205 15.9778L11.1503 14.5465H20.4541C20.8832 14.5465 21.2553 14.6324 21.5419 14.8613V14.5465H24.0895V14.8613C24.5187 14.6322 25.0626 14.5465 25.6926 14.5465H29.3853L29.729 15.205V14.5465H32.4485L32.8494 15.205V14.5465H35.5114V20.1573H32.8208L32.3057 19.2986V20.1573H28.9562L28.5841 19.2414H27.7536L27.3816 20.1573H25.6355C24.9484 20.1573 24.433 19.9855 24.0897 19.8139V20.1573H19.9388V18.8691C19.9388 18.6973 19.9102 18.6686 19.7956 18.6686H19.6526V20.1571H11.6369V19.4414L11.3507 20.1571H9.66176L9.3756 19.47V20.1571H6.14063L5.79719 19.2412H4.96691L4.59484 20.1571H2.93429V37.0757H37.0863V26.7985C36.7142 26.9703 36.1987 27.0562 35.6835 27.0562H33.1929V26.7126C32.9067 26.9419 32.3912 27.0562 31.9048 27.0562H24.0609V25.7682C24.0609 25.5963 24.0325 25.5963 23.8891 25.5963H23.7461V27.0562H21.1696V25.5391C20.7404 25.7393 20.2536 25.7393 19.8242 25.7393H19.5379V27.0562H16.389L15.6449 26.1973L14.8148 27.0562H9.74747V21.4456H14.9003L15.6447 22.3041L16.4463 21.4456H19.9102C20.3107 21.4456 20.9693 21.5027 21.2555 21.7888V21.4456H24.3471C24.6621 21.4456 25.2635 21.5027 25.664 21.7888V21.4456H30.3302V21.789C30.5879 21.5599 31.0747 21.4458 31.5039 21.4458H34.1088V21.789C34.3954 21.5888 34.7959 21.4458 35.3114 21.4458H37.0863V2.78076Z" fill="#0077A6"/>
</svg>
