<svg width="328" height="40" viewBox="0 0 328 40" fill="none" xmlns="http://www.w3.org/2000/svg">
<path fill-rule="evenodd" clip-rule="evenodd" d="M91.586 22.7686H81.6116C81.6116 18.254 83.495 15.8063 86.6923 15.8063C89.7026 15.8063 91.586 18.6297 91.586 22.7686ZM97.2292 26.9111V25.7824C97.2292 19.947 96.1006 16.7498 94.0302 14.4907C92.3373 12.6091 89.7026 11.6691 86.6905 11.6691C83.3046 11.6691 80.6699 12.7977 78.5996 15.2437C76.5292 17.6897 75.4006 20.8905 75.4006 25.4051C75.4006 34.0621 79.9151 39.3315 87.4435 39.3315C91.0182 39.3315 94.2172 38.0141 96.8519 35.7551L94.7815 32.3691C92.7111 34.0621 90.6408 35.0038 88.1948 35.0038C85.7488 35.0038 83.8672 34.0621 82.5498 32.1822C81.7968 31.0535 81.4212 29.1684 81.4212 27.2885V26.9128H97.2292V26.9111ZM170.995 26.1563L170.808 32.3674C169.679 34.2473 167.798 35.3777 165.727 35.3777C163.281 35.3777 161.964 33.8734 161.964 31.2387C161.964 29.7344 162.34 28.6041 163.281 27.6624C164.41 26.5337 166.293 26.1581 169.679 26.1581L170.995 26.1563ZM178.523 36.1307C176.643 35.0021 176.264 33.8717 176.264 30.8614V20.5113C176.264 18.0636 176.264 17.1219 175.889 15.9933C174.947 13.1699 171.937 11.6656 167.986 11.6656C165.727 11.6656 163.281 12.0412 161.024 13.1699C159.518 13.9229 158.201 14.2985 156.883 15.2402L159.329 19.1923C160.458 18.4392 161.211 18.0636 162.528 17.3106C164.221 16.5576 165.914 16.1819 167.232 16.1819C168.736 16.1819 169.678 16.5576 170.245 17.3106C170.808 18.0636 170.997 19.0053 170.997 20.887V22.3913H169.304C160.647 22.3913 156.13 25.4016 156.13 31.6109C156.13 33.4943 156.695 35.942 158.201 37.2576C159.707 38.5749 161.587 39.3262 164.787 39.3262C167.045 39.3262 168.738 38.7636 170.432 37.8219C170.995 37.2594 171.184 36.8802 171.937 36.129C172.499 37.8219 174.009 39.1393 175.7 39.7018L178.523 36.1307ZM303.473 22.7686H293.686C293.686 18.254 295.569 15.8063 298.579 15.8063C301.782 15.8063 303.473 18.6297 303.473 22.7686ZM309.305 26.9111V25.7824C309.305 19.947 308.178 16.7498 306.108 14.4907C304.224 12.6091 301.593 11.6691 298.579 11.6691C295.382 11.6691 292.747 12.7977 290.677 15.2437C288.605 17.6897 287.476 20.8905 287.476 25.4051C287.476 34.0621 291.994 39.3315 299.523 39.3315C302.91 39.3315 306.109 38.0141 308.931 35.7551L306.672 32.3691C304.792 34.0621 302.533 35.0038 300.274 35.0038C297.639 35.0038 295.759 34.0621 294.631 32.1822C293.876 31.0535 293.502 28.9814 293.502 27.2885V26.9128H309.305V26.9111ZM70.886 38.5784V2.63468H65.2392V17.3123H52.2563V2.63468H46.7982V38.5784H52.2563V21.8304H65.2392V38.5784H70.886ZM115.672 12.043C115.108 11.8543 114.543 11.6674 113.602 11.6674C110.778 11.6674 108.708 13.1716 107.015 15.8063V15.242C107.015 13.7377 106.638 12.796 106.073 11.6674L100.804 12.9847C101.557 14.6777 101.746 16.5593 101.746 19.7583V38.5767H107.391V21.0757C107.579 19.5714 107.955 19.0053 108.897 18.0654C109.838 17.1237 111.154 16.9367 112.284 16.9367C113.037 16.9367 113.224 17.1237 113.977 17.3123L115.672 12.043ZM151.425 38.5784V19.194C151.425 16.3706 150.861 14.6777 149.355 13.3603C148.226 12.2317 146.532 11.6674 144.65 11.6674C141.828 11.6674 138.629 13.1716 136.559 15.6194C136.01 14.4362 135.133 13.4352 134.033 12.7348C132.932 12.0344 131.654 11.664 130.35 11.6674C127.904 11.6674 125.269 13.1716 123.387 15.0533C123.2 13.736 122.823 12.6073 122.447 11.8543L117.367 13.1716C118.12 14.8646 118.307 15.8063 118.307 19.5714V38.5784H123.576V19.194C125.835 17.3123 127.528 16.3706 129.221 16.3706C131.478 16.3706 132.044 17.688 132.044 20.7V38.5767H137.502V19.5714C139.573 17.3123 141.643 16.3706 143.147 16.3706C145.218 16.3706 145.969 17.4993 145.969 20.134V38.5784H151.425ZM203.174 38.5784V19.0071C203.174 14.302 200.352 11.856 196.213 11.856C193.391 11.856 191.132 12.7977 188.311 15.242C188.311 14.1133 187.932 12.9847 187.369 11.6674L182.288 13.1716C183.043 14.8646 183.043 16.3706 183.043 19.194V38.5784H188.499V19.5714C190.379 17.688 192.827 16.3706 194.711 16.3706C196.779 16.3706 197.721 17.4993 197.721 21.0757V38.5784H203.174ZM245.702 38.5784L242.692 2.63468H234.977L228.013 29.3536L220.863 2.63468H212.961L209.572 38.5784H214.841L217.287 8.46835L225.378 38.5784H229.709L237.987 9.03267L240.246 38.5784H245.702ZM257.181 38.5784V11.6674L251.538 12.6091V38.5784H257.181ZM258.123 4.51634C258.123 2.63467 256.426 0.753014 254.359 0.753014C252.476 0.753014 250.596 2.63467 250.596 4.51634C250.596 6.77363 252.289 8.28141 254.359 8.28141C256.428 8.27966 258.123 6.77363 258.123 4.51634ZM272.8 38.5784L271.672 35.1907H271.109C270.167 35.1907 269.416 34.6282 269.416 32.5561V7.90403C269.416 4.51634 269.416 2.25905 269.037 0.375641L263.394 1.69297C263.769 3.57464 263.956 5.4563 263.956 9.21962V32.93C263.956 36.882 266.029 39.141 269.226 39.141C270.732 39.141 271.67 38.9541 272.8 38.5784ZM285.596 38.5784L284.468 35.1907C283.716 35.1907 283.15 35.1908 282.775 34.8151C282.399 34.2491 282.209 33.1186 282.209 30.484V7.90403C282.209 4.51634 282.209 2.25905 281.646 0.375641L276.003 1.69297C276.565 3.57464 276.565 5.4563 276.565 9.21962V31.9883C276.565 34.8134 277.128 36.3194 277.883 37.2611C278.638 38.5784 280.329 39.141 282.022 39.141C283.337 39.141 284.466 38.9541 285.596 38.5784ZM327.749 12.043C327.183 11.8543 326.621 11.6674 325.677 11.6674C322.856 11.6674 320.597 13.1716 318.904 15.8063V15.242C318.904 13.7377 318.528 12.796 317.962 11.6674L312.881 12.9847C313.636 14.6777 313.823 16.5593 313.823 19.7583V38.5767H319.279V21.0757C319.655 19.5714 320.034 19.0053 320.972 18.0654C321.914 17.1237 323.231 16.9367 324.36 16.9367C324.926 16.9367 325.302 17.1237 326.053 17.3123L327.749 12.043ZM31.5563 30.1083C31.5563 30.1083 27.0417 28.6041 20.6419 28.6041C14.0552 28.6041 9.53888 30.1083 9.53888 30.1083V9.59701H9.91451C9.91451 9.59701 11.6092 27.6624 20.6419 27.6624C29.4859 27.6624 31.1789 9.59701 31.1789 9.59701H31.5545V30.1083H31.5563ZM40.2115 19.7583C40.2115 8.84224 31.3676 0 20.6419 0C9.72757 0 0.881836 8.84398 0.881836 19.7583C0.881836 30.6744 9.72582 39.5167 20.6419 39.5167C31.3676 39.5167 40.2115 30.6744 40.2115 19.7583Z" fill="#EFEFEF"/>
</svg>
