<svg width="116" height="32" viewBox="0 0 116 32" fill="none" xmlns="http://www.w3.org/2000/svg">
<path d="M114.789 27.8447C114.789 26.0653 113.527 24.7623 111.789 24.7623C110.053 24.7623 108.79 26.0653 108.79 27.8447C108.79 29.6212 110.053 30.922 111.789 30.922C113.527 30.922 114.789 29.619 114.789 27.8447ZM111 28.0028V30.016H110.35V25.5766H111.966C112.913 25.5766 113.348 25.9902 113.348 26.7965C113.348 27.2932 113.012 27.6866 112.58 27.7436V27.7624C112.955 27.8223 113.093 28.1572 113.17 28.7701C113.229 29.1671 113.308 29.8558 113.45 30.0175H112.68C112.501 29.6002 112.519 29.0097 112.381 28.5153C112.267 28.1392 112.066 28.002 111.635 28.002H111.004V28.0042L111 28.0028ZM111.807 27.4289C112.438 27.4289 112.619 27.0925 112.619 26.7958C112.619 26.445 112.438 26.1678 111.807 26.1678H111V27.4303H111.807V27.4289ZM108.075 27.8447C108.075 25.6524 109.815 24.1704 111.786 24.1704C113.762 24.1704 115.5 25.6524 115.5 27.8447C115.5 30.0326 113.763 31.516 111.786 31.516C109.815 31.516 108.075 30.0326 108.075 27.8447Z" fill="#FF5A00"/>
<path d="M95.2131 30.8761L90.9347 26.0779L86.6938 30.8761H77.7701L86.4916 21.0776L77.7701 11.2762H86.9724L91.2941 16.0375L95.4528 11.2762H104.333L95.6549 21.0364L104.454 30.8761H95.2131ZM60.6346 30.8761V0H77.7701V6.8822H67.8929V11.2762H77.7701V17.8985H67.8929V23.9765H77.7701V30.8761H60.6346Z" fill="#FF5A00"/>
<path d="M53.4031 0V12.6361H53.323C51.7226 10.7968 49.7224 10.1558 47.403 10.1558C42.6503 10.1558 39.0699 13.389 37.8131 17.6603C36.3795 12.953 32.6829 10.0678 27.2025 10.0678C22.7508 10.0678 19.2368 12.0651 17.4011 15.3207V11.2754H8.20104V6.88293H18.2421V0.00144568H0V30.8761H8.20104V17.8985H16.3754C16.1236 18.8964 15.9977 19.922 16.0007 20.9512C16.0007 27.3888 20.9202 31.9127 27.2011 31.9127C32.4808 31.9127 35.963 29.4316 37.803 24.915H30.7743C29.8243 26.2742 29.1025 26.6756 27.2018 26.6756C24.9987 26.6756 23.0973 24.7525 23.0973 22.4758H37.4089C38.0297 27.5902 42.0143 32 47.4831 32C49.8422 32 52.002 30.84 53.3223 28.8801H53.4017V30.8804H60.6325V0.00144568H53.4031V0ZM23.3254 17.9909C23.7824 16.0289 25.3033 14.7469 27.2018 14.7469C29.2923 14.7469 30.736 15.9892 31.115 17.9909H23.3254ZM49.0149 26.1775C46.3506 26.1775 44.6946 23.695 44.6946 21.1021C44.6946 18.3302 46.1354 15.6672 49.0149 15.6672C52.0027 15.6672 53.1931 18.3316 53.1931 21.1021C53.1931 23.7282 51.9327 26.1775 49.0149 26.1775Z" fill="#29007C"/>
</svg>
