<svg width="167" height="40" viewBox="0 0 167 40" fill="none" xmlns="http://www.w3.org/2000/svg">
<path fill-rule="evenodd" clip-rule="evenodd" d="M64.6881 28.9966L62.4194 39.5443H57.2013L65.8225 1.31808H72.0038L80.1145 39.5443H74.8397L72.6277 28.9966H64.6881ZM72.0038 24.7427L70.2455 15.6101C69.7351 13.0011 69.2246 9.59989 68.8285 6.87647H68.6007C68.2046 9.65567 67.6356 13.1713 67.127 15.6101L65.312 24.7427H72.0038ZM100.032 0.298096V32.4555C100.032 34.555 100.146 37.6178 100.258 39.5453H95.6648L95.3245 36.1998H95.1543C94.2468 38.1273 92.1483 39.9999 89.37 39.9999C84.2654 39.9999 81.1459 34.4406 81.1459 25.878C81.1459 16.1225 85.2854 11.5283 89.6536 11.5283C91.8647 11.5283 93.6229 12.5502 94.5871 14.6478H94.7006V0.298096H100.032ZM94.6996 22.474C94.6996 21.9645 94.6996 21.3406 94.6429 20.7715C94.3593 18.2768 92.9414 16.1215 91.0139 16.1215C87.6666 16.1215 86.5332 20.7715 86.5332 25.8771C86.5332 31.5489 88.0078 35.5183 90.8437 35.5183C92.0348 35.5183 93.622 34.8944 94.5295 31.6056C94.6429 31.1519 94.6996 30.4703 94.6996 29.8483V22.474ZM112.731 39.999C107.231 39.999 103.259 35.2914 103.259 25.8213C103.259 15.7812 107.966 11.5274 113.014 11.5274C118.459 11.5274 122.372 16.4051 122.372 25.7069C122.372 36.6536 116.983 39.999 112.787 39.999H112.731ZM112.901 35.8028C116.189 35.8028 116.928 29.9608 116.928 25.7646C116.928 21.6232 116.19 15.7255 112.788 15.7255C109.271 15.7255 108.591 21.6232 108.591 25.7646C108.591 30.3578 109.385 35.8028 112.845 35.8028H112.901ZM125.586 0.298096H130.916V15.1006H131.03C132.448 12.606 134.376 11.5274 136.815 11.5274C141.522 11.5274 144.472 16.8589 144.472 25.3099C144.472 35.1779 140.445 39.999 135.907 39.999C133.185 39.999 131.653 38.5234 130.461 36.0845H130.236L129.952 39.5443H125.359C125.472 37.6736 125.586 34.554 125.586 32.4545V0.298096ZM130.916 29.7888C130.916 30.4146 130.973 31.0385 131.143 31.4913C131.993 34.8386 133.639 35.5183 134.715 35.5183C137.892 35.5183 139.083 31.322 139.083 25.6502C139.083 20.3754 137.836 16.1215 134.659 16.1215C132.9 16.1215 131.482 18.2201 131.085 20.2053C130.972 20.7725 130.915 21.5107 130.915 22.077V29.7888H130.916ZM152.339 26.8404C152.395 33.9301 155.457 35.6875 158.69 35.6875C160.619 35.6875 162.263 35.2347 163.454 34.6665L164.249 38.5234C162.604 39.3742 160.108 39.8288 157.669 39.8288C150.751 39.8288 147.121 34.6108 147.121 26.103C147.121 17.0848 151.26 11.5264 156.989 11.5264C162.717 11.5264 165.383 17.0281 165.383 23.9487C165.383 25.309 165.325 26.1607 165.269 26.8971L152.339 26.8404ZM160.335 23.0412C160.392 18.1634 158.69 15.5553 156.593 15.5553C153.812 15.5553 152.565 19.5823 152.395 23.0412H160.335Z" fill="#EAEAEA"/>
<path fill-rule="evenodd" clip-rule="evenodd" d="M27.1558 1.42029H43.0813V39.5444L27.1558 1.42029ZM15.9369 1.42029H0V39.5444L15.9369 1.42029ZM21.5473 15.4704L31.6942 39.5444H25.0449L22.0105 31.8771H14.5832L21.5473 15.4704Z" fill="#EAEAEA"/>
<path fill-rule="evenodd" clip-rule="evenodd" d="M164.93 11.4566C165.09 11.4573 165.248 11.4897 165.395 11.5518C165.542 11.614 165.676 11.7047 165.788 11.8187C165.9 11.9327 165.988 12.0677 166.048 12.216C166.107 12.3643 166.137 12.5229 166.134 12.6827C166.134 13.3746 165.6 13.9144 164.924 13.9144C164.254 13.9144 163.709 13.3756 163.709 12.6827C163.708 12.5223 163.739 12.3633 163.799 12.2148C163.86 12.0664 163.949 11.9313 164.062 11.8174C164.175 11.7035 164.309 11.613 164.457 11.5511C164.605 11.4892 164.764 11.4571 164.924 11.4566H164.93ZM164.924 11.6466C164.386 11.6466 163.943 12.1107 163.943 12.6827C163.943 13.2659 164.386 13.7234 164.93 13.7234C165.475 13.7291 165.91 13.2659 165.91 12.6883C165.91 12.1107 165.475 11.6466 164.93 11.6466H164.924ZM164.696 13.3973H164.478V12.0285C164.593 12.0124 164.702 11.9954 164.866 11.9954C165.073 11.9954 165.208 12.0398 165.29 12.0994C165.373 12.1589 165.416 12.2516 165.416 12.383C165.416 12.5626 165.296 12.6722 165.148 12.7157V12.7261C165.269 12.7479 165.351 12.8575 165.377 13.0589C165.41 13.2716 165.442 13.3529 165.465 13.3973H165.236C165.203 13.3529 165.171 13.2281 165.144 13.0485C165.111 12.8736 165.024 12.8084 164.849 12.8084H164.697V13.3973H164.696ZM164.696 12.6392H164.854C165.033 12.6392 165.187 12.5739 165.187 12.4047C165.187 12.2847 165.099 12.1646 164.854 12.1646C164.784 12.1646 164.733 12.1703 164.696 12.176V12.6392ZM45.1808 1.42029C45.3406 1.42102 45.4987 1.45339 45.6459 1.51554C45.7931 1.57768 45.9265 1.66837 46.0385 1.78236C46.1504 1.89635 46.2387 2.03139 46.2982 2.17968C46.3577 2.32797 46.3873 2.48658 46.3851 2.64635C46.3851 3.33831 45.851 3.87808 45.1752 3.87808C44.5049 3.87808 43.9595 3.33925 43.9595 2.64635C43.9586 2.48597 43.9894 2.32699 44.05 2.17853C44.1107 2.03006 44.2001 1.89501 44.313 1.78112C44.4259 1.66724 44.5602 1.57674 44.7081 1.51482C44.8561 1.45291 45.0148 1.42078 45.1752 1.42029H45.1808ZM45.1752 1.61029C44.6354 1.61029 44.1939 2.07444 44.1939 2.64635C44.1939 3.2296 44.6354 3.68712 45.1808 3.68712C45.7253 3.6928 46.1621 3.2296 46.1621 2.65202C46.1621 2.07444 45.7253 1.61029 45.1808 1.61029H45.1752ZM44.9464 3.361H44.728V1.99219C44.8561 1.97093 44.9857 1.96019 45.1156 1.96006C45.3226 1.96006 45.4587 2.0026 45.54 2.0631C45.6223 2.12265 45.6658 2.21623 45.6658 2.34668C45.6658 2.52629 45.5457 2.63595 45.3982 2.67943V2.68983C45.5183 2.71157 45.6005 2.82123 45.628 3.02352C45.6601 3.23622 45.6932 3.31752 45.7149 3.36194H45.4862C45.4531 3.31752 45.42 3.19273 45.3935 3.01312C45.3604 2.83824 45.2735 2.77302 45.0986 2.77302H44.9464V3.361ZM44.9464 2.60286H45.1043C45.2839 2.60286 45.437 2.53764 45.437 2.36843C45.437 2.24837 45.35 2.12832 45.1043 2.12832C45.0334 2.12832 44.9842 2.13399 44.9464 2.13967V2.60286Z" fill="#EAEAEA"/>
</svg>
