<svg width="117" height="36" viewBox="0 0 117 36" fill="none" xmlns="http://www.w3.org/2000/svg">
<path d="M116.468 0V25.7025H0V0H116.468Z" fill="#FFCC00"/>
<path d="M20.4821 4.61572L16.761 9.67112H37.0411C38.0663 9.67112 38.0527 10.0606 37.5516 10.7394C37.0428 11.4284 36.1912 12.6267 35.6729 13.3267C35.41 13.6819 34.9344 14.329 36.5103 14.329H44.8036C44.8036 14.329 46.1404 12.5101 47.2606 10.9892C48.7852 8.92066 47.3929 4.61593 41.9433 4.61593L20.4821 4.61572Z" fill="#D2002E"/>
<path d="M15.2554 21.0856L22.7294 10.9302H32.004C33.0292 10.9302 33.0158 11.3198 32.5148 11.9985C32.0059 12.6876 31.1404 13.8731 30.6221 14.5731C30.3589 14.9283 29.8835 15.5764 31.4592 15.5764H43.8845C42.8511 16.9921 39.4992 21.0854 33.4805 21.0854L15.2554 21.0856ZM58.0592 15.5752L54.0062 21.0852H43.3148C43.3148 21.0852 47.3656 15.5764 47.3691 15.5764L58.0592 15.5752ZM74.4379 14.329H48.2876L55.4387 4.61572H66.127L62.0281 10.1853H66.7989L70.8995 4.61572H81.5865L74.4379 14.329ZM73.52 15.5766L69.4651 21.0856H58.7776C58.7776 21.0856 62.8285 15.5766 62.832 15.5766H73.52ZM0 17.7489H15.7505L14.8901 18.9193H0V17.7489ZM0 15.5766H17.3506L16.4886 16.7454H0V15.5766ZM0 19.9224H14.1511L13.2949 21.0856H0V19.9224ZM116.468 18.9193H100.778L101.64 17.7491H116.468V18.9193ZM116.468 21.0856L99.1834 21.0873L100.04 19.9224H116.468V21.0856ZM103.238 15.5766H116.468V16.746L102.377 16.747L103.238 15.5766ZM96.3885 4.61572L89.2386 14.3288H77.9131C77.9131 14.3288 85.0648 4.61572 85.0685 4.61572H96.3885ZM76.9966 15.5766C76.9966 15.5766 76.2154 16.6443 75.8361 17.1575C74.4936 18.9719 75.6804 21.0856 80.0614 21.0856H97.2262L101.281 15.5766H76.9966Z" fill="#D2002E"/>
<path d="M0 29.8809H116.468V30.4631H0V29.8809ZM0 32.5978H116.468V33.18H0V32.5978ZM0 35.3141H116.468V35.8963H0V35.3141Z" fill="#FFCC00"/>
<path d="M39.1093 35.8964H42.6144L43.1738 35.1381H40.5654L42.0281 33.156H44.4036L44.9632 32.3976H42.5877L43.8848 30.6398H46.4935L47.0531 29.8814H43.5481L39.1093 35.8964ZM43.4109 35.8964H44.4866L48.153 33.3457L48.1171 35.8964H49.2466L49.255 32.7511L53.4792 29.8814H52.4573L49.0947 32.1909L49.1315 29.8814H48.0558L48.0232 32.7684L43.4109 35.8964ZM54.8361 30.6398H55.5981C56.154 30.6398 56.775 30.9155 56.2154 31.6738C55.6303 32.4664 54.734 32.7337 54.1781 32.7337H53.2906L54.8361 30.6398ZM50.0605 35.8964H50.9568L52.731 33.4921H53.6094C54.7389 33.4921 56.1733 33.0182 57.159 31.6822C58.1701 30.312 57.4213 29.881 56.1396 29.881H54.4992L50.0605 35.8964ZM55.2225 35.8964H56.119L58.0904 33.2249H58.628C59.103 33.2249 59.3993 33.2249 59.2448 33.8108L58.665 35.8964H59.6871L60.2718 33.5006C60.348 33.1302 60.3091 33.0009 60.1072 32.8972L60.1199 32.8799C60.9353 32.7591 61.8814 32.2423 62.4221 31.5097C63.484 30.0708 62.4317 29.881 61.1944 29.881H59.6616L55.2225 35.8964ZM59.9983 30.6398H60.8587C61.6837 30.6398 61.8594 30.9846 61.459 31.5271C61.0329 32.1048 60.2637 32.4664 59.412 32.4664H58.65L59.9983 30.6398ZM60.6152 35.8964H64.1204L64.6796 35.1381H62.0714L63.5339 33.156H65.9096L66.4688 32.3976H64.0935L65.3906 30.6398H67.9993L68.5591 29.8814H65.0541L60.6152 35.8964ZM72.8768 29.9933C72.5546 29.8469 72.1121 29.7778 71.6998 29.7778C70.5703 29.7778 69.2722 30.3469 68.4835 31.4154C67.1036 33.2855 70.0664 32.9149 69.0741 34.2592C68.5527 34.9655 67.632 35.2416 67.1212 35.2416C66.6637 35.2416 66.2533 35.0691 66.0376 34.9483L65.3567 35.7499C65.6737 35.8791 66.0152 35.9999 66.4544 35.9999C67.7092 35.9999 69.1154 35.4908 70.0629 34.2069C71.5254 32.2252 68.6388 32.4919 69.4912 31.3375C69.9557 30.7085 70.6745 30.5361 71.1764 30.5361C71.6427 30.5361 71.836 30.614 72.166 30.7861L72.8768 29.9933ZM77.359 29.9933C77.0369 29.8469 76.5946 29.7778 76.182 29.7778C75.0526 29.7778 73.7544 30.3469 72.9657 31.4154C71.5858 33.2855 74.5486 32.9149 73.5564 34.2592C73.0352 34.9655 72.1142 35.2416 71.6035 35.2416C71.146 35.2416 70.7353 35.0691 70.52 34.9483L69.839 35.7499C70.156 35.8791 70.4974 35.9999 70.9364 35.9999C72.1914 35.9999 73.5974 35.4908 74.5449 34.2069C76.0076 32.2252 73.1212 32.4919 73.9734 31.3375C74.4377 30.7085 75.1567 30.5361 75.6586 30.5361C76.1249 30.5361 76.3187 30.614 76.6482 30.7861L77.359 29.9933Z" fill="#D2002E"/>
</svg>
